<svg id="Layer_1" data-name="Layer 1" xmlns="http://www.w3.org/2000/svg" viewBox="0 0 294.87 292.16"><defs><style>.cls-1{fill:none;stroke:#000;stroke-miterlimit:10;stroke-width:8px;}.cls-2,.cls-3,.cls-4,.cls-5,.cls-6{fill:#59809b;}.cls-3{font-size:24.01px;}.cls-3,.cls-4,.cls-5,.cls-6{font-family:CrimsonText-Regular, Crimson Text;}.cls-4{font-size:10.8px;}.cls-5{font-size:10.2px;}.cls-6{font-size:17.4px;}</style></defs><title>daniel-icon-6-blue</title><path class="cls-1" d="M508,1039.41" transform="translate(-387.79 -368.73)"/><path class="cls-2" d="M538.72,373a160.41,160.41,0,0,1,21.43,1.8A145.12,145.12,0,0,1,601,387.63a153.11,153.11,0,0,1,18.52,10.75A144.47,144.47,0,0,1,679.62,547.3,142.68,142.68,0,0,1,665,586.79a152.34,152.34,0,0,1-11.46,17.67,142.65,142.65,0,0,1-29.93,29.32,151.68,151.68,0,0,1-17.82,11,141.37,141.37,0,0,1-39.42,13.64,141,141,0,0,1-144.22-61.32,147.65,147.65,0,0,1-10-18,139,139,0,0,1-11.48-39.36,153.68,153.68,0,0,1-1.29-20.47,153.45,153.45,0,0,0,1.72,20.41,138.12,138.12,0,0,0,12.23,38.87,146.13,146.13,0,0,0,10.24,17.62,137.47,137.47,0,0,0,141.75,57.14,135.68,135.68,0,0,0,37.55-13.89,145.37,145.37,0,0,0,16.8-10.91A135.65,135.65,0,0,0,647.61,600a144.73,144.73,0,0,0,10.49-16.95A134.37,134.37,0,0,0,671,545.6a134,134,0,0,0-58.35-137,140.67,140.67,0,0,0-17.13-9.47,132,132,0,0,0-37.39-10.88A146.75,146.75,0,0,0,538.72,387Z" transform="translate(-387.79 -368.73)"/><path class="cls-2" d="M629.88,519.7a99.63,99.63,0,0,1-1.2,13.34,90.23,90.23,0,0,1-14.89,36.82,89.36,89.36,0,0,1-92.33,36.67,87.67,87.67,0,0,1-67.85-69.9,86.58,86.58,0,0,1,5.74-49.81A85.68,85.68,0,0,1,491.48,449a84.5,84.5,0,0,1,47.24-13.45,83.29,83.29,0,0,0-76.14,52.62,82.21,82.21,0,0,0-3.83,47.45,81.07,81.07,0,0,0,22.94,41.12,79.78,79.78,0,0,0,87.23,15.88A78.68,78.68,0,0,0,603.61,563a77.48,77.48,0,0,0,12.27-43.35Z" transform="translate(-387.79 -368.73)"/><path class="cls-2" d="M538.72,568.78a53.14,53.14,0,0,1-14.12-2.53,51.74,51.74,0,0,1-12.66-6.47A52.4,52.4,0,0,1,501.8,550a51.34,51.34,0,0,1-6.8-12.19,50.47,50.47,0,0,1-2.94-13.52,51,51,0,0,1,1.1-13.65,49.36,49.36,0,0,1,5-12.63,45.48,45.48,0,0,1,19.3-18.11,48.06,48.06,0,0,1,12.56-4,48.85,48.85,0,0,1,13.06-.21,43.5,43.5,0,0,1,31.37,20.19,46.08,46.08,0,0,1,5,11.52,46.6,46.6,0,0,1,1.4,12.34,46.16,46.16,0,0,0-2.23-12.09,44.78,44.78,0,0,0-5.59-10.8,45.46,45.46,0,0,0-8.4-8.62,44.38,44.38,0,0,0-10.43-5.75A43.52,43.52,0,0,0,542.63,480,44.08,44.08,0,0,0,531,481a42.4,42.4,0,0,0-10.69,4.28,43.26,43.26,0,0,0-8.89,7.13,42.81,42.81,0,0,0-6.36,9.3,41.09,41.09,0,0,0-3.34,10.61,41.94,41.94,0,0,0-.11,11,36.5,36.5,0,0,0,17.11,26.24,39.12,39.12,0,0,0,9.66,4.09,39.71,39.71,0,0,0,10.31,1.1Z" transform="translate(-387.79 -368.73)"/><text class="cls-3" transform="translate(19.16 151.11) rotate(-89.07)"> </text><text class="cls-3" transform="translate(19.1 143.49) rotate(-83.31)">D</text><text class="cls-3" transform="translate(21.64 124.66) rotate(-76.53)">a</text><text class="cls-3" transform="matrix(0.33, -0.94, 0.94, 0.33, 24.51, 112.87)">n</text><text class="cls-3" transform="translate(29.74 98.77) rotate(-65.4)">i</text><text class="cls-3" transform="translate(33.37 90.9) rotate(-60.78)">e</text><text class="cls-3" transform="translate(39.62 80.1) rotate(-56.26)">l</text><text class="cls-3" transform="translate(44.36 73.15) rotate(-52.72)"> </text><text class="cls-3" transform="translate(48.94 66.99) rotate(-47.55)">B</text><text class="cls-3" transform="matrix(0.75, -0.66, 0.66, 0.75, 59.93, 55.29)">e</text><text class="cls-3" transform="matrix(0.81, -0.59, 0.59, 0.81, 69.31, 47.19)">r</text><text class="cls-3" transform="matrix(0.85, -0.52, 0.52, 0.85, 78.44, 40.61)">r</text><text class="cls-3" transform="matrix(0.9, -0.44, 0.44, 0.9, 88.04, 34.82)">y</text><text class="cls-3" transform="translate(99.35 29.12) rotate(-18.82)">m</text><text class="cls-3" transform="matrix(0.98, -0.2, 0.2, 0.98, 119.15, 22.81)">a</text><text class="cls-3" transform="matrix(1, -0.1, 0.1, 1, 131.03, 20.4)">n</text><text class="cls-4" transform="translate(150.59 69.44) rotate(0.93)"> </text><text class="cls-4" transform="matrix(1, 0.04, -0.04, 1, 153.14, 69.48)"> </text><text class="cls-5" transform="translate(155.63 69.34) rotate(5.73)">C</text><text class="cls-5" transform="translate(162.1 70.03) rotate(9.5)">a</text><text class="cls-5" transform="translate(166.32 70.74) rotate(12.37)">r</text><text class="cls-5" transform="matrix(0.97, 0.25, -0.25, 0.97, 170.08, 71.58)">i</text><text class="cls-5" transform="matrix(0.95, 0.3, -0.3, 0.95, 172.74, 72.24)">n</text><text class="cls-5" transform="translate(177.9 73.89) rotate(21.23)">g</text><text class="cls-5" transform="translate(182.35 75.65) rotate(23.76)"> </text><text class="cls-5" transform="matrix(0.9, 0.43, -0.43, 0.9, 184.54, 76.61)">f</text><text class="cls-5" transform="translate(187.3 77.91) rotate(28.6)">o</text><text class="cls-5" transform="matrix(0.85, 0.53, -0.53, 0.85, 191.79, 80.38)">r</text><text class="cls-5" transform="translate(195.06 82.43) rotate(33.95)"> </text><text class="cls-5" transform="matrix(0.81, 0.59, -0.59, 0.81, 197.04, 83.75)">t</text><text class="cls-5" transform="translate(199.62 85.59) rotate(38.89)">h</text><text class="cls-5" transform="translate(203.75 88.94) rotate(42.27)">e</text><text class="cls-5" transform="matrix(0.71, 0.7, -0.7, 0.71, 206.96, 91.89)"> </text><text class="cls-5" transform="matrix(0.67, 0.74, -0.74, 0.67, 208.66, 93.45)">w</text><text class="cls-5" transform="translate(213.5 98.89) rotate(52.31)">o</text><text class="cls-5" transform="translate(216.61 102.95) rotate(55.44)">r</text><text class="cls-5" transform="translate(218.78 106.13) rotate(57.7)">l</text><text class="cls-5" transform="translate(220.18 108.29) rotate(60.38)">d</text><text class="cls-5" transform="matrix(0.45, 0.89, -0.89, 0.45, 222.64, 112.68)"> </text><text class="cls-5" transform="translate(223.73 114.8) rotate(64.97)">t</text><text class="cls-5" transform="translate(225.09 117.65) rotate(67.97)">h</text><text class="cls-5" transform="matrix(0.32, 0.95, -0.95, 0.32, 227.06, 122.58)">r</text><text class="cls-5" transform="translate(228.31 126.2) rotate(74.39)">o</text><text class="cls-5" transform="translate(229.67 131.08) rotate(78.01)">u</text><text class="cls-5" transform="translate(230.74 136.14) rotate(81.51)">g</text><text class="cls-5" transform="translate(231.45 140.82) rotate(85.04)">h</text><text class="cls-6" transform="translate(151.31 198.25) rotate(-3.08)"> </text><text class="cls-6" transform="matrix(0.97, -0.25, 0.25, 0.97, 156.52, 198.27)">w</text><text class="cls-6" transform="translate(169.93 194.31) rotate(-28.21)">e</text><text class="cls-6" transform="matrix(0.78, -0.63, 0.63, 0.78, 177.43, 190.21)">b</text><text class="cls-6" transform="matrix(0.67, -0.74, 0.74, 0.67, 184.61, 184.05)"> </text><text class="cls-6" transform="translate(187.97 180.49) rotate(-56.3)">d</text><text class="cls-6" transform="translate(193.19 172.36) rotate(-67.25)">e</text><text class="cls-6" transform="matrix(0.2, -0.98, 0.98, 0.2, 196.43, 164.45)">v</text></svg>